<?xml version="1.0" encoding="utf-8"?>
<svg viewBox="0 0 2.203 2.203" xmlns="http://www.w3.org/2000/svg">
	<path
		fill="white" stroke="param(outline)" stroke-width="param(outline-width)" stroke-linecap="round" stroke-linejoin="butt" stroke-miterlimit="10"
		 d="M 0.551 1.652 L 1.651 1.652 L 1.651 0.552 L 0.551 0.552 L 0.551 1.652"
	/>
	<path
		fill="param(fill)" stroke="param(outline)" stroke-width="param(outline-width)" stroke-linecap="round" stroke-linejoin="butt" stroke-miterlimit="10"
		 d="M 0.631 1.572 L 1.571 1.572 L 1.571 0.632 L 0.631 0.632 L 0.631 1.572
		    M 0.746 1.371 L 0.746 1.361 L 0.749 1.342 L 0.759 1.317 L 0.784 1.288 L 0.817 1.271 L 0.856 1.267 L 0.897 1.281 L 0.925 1.306 L 0.942 1.338 L 0.946 1.370 L 0.940 1.399 L 0.916 1.438 L 0.883 1.459 L 0.847 1.467 L 0.812 1.461 L 0.784 1.445 L 0.765 1.425 L 0.750 1.397 L 0.746 1.371
	      M 0.996 1.371 L 0.996 1.361 L 0.999 1.342 L 1.009 1.317 L 1.034 1.288 L 1.067 1.271 L 1.106 1.267 L 1.147 1.281 L 1.175 1.306 L 1.192 1.338 L 1.196 1.370 L 1.190 1.399 L 1.166 1.438 L 1.133 1.459 L 1.097 1.467 L 1.062 1.461 L 1.034 1.445 L 1.015 1.425 L 1.000 1.397 L 0.996 1.371
        M 1.246 1.371 L 1.246 1.361 L 1.249 1.342 L 1.259 1.317 L 1.284 1.288 L 1.317 1.271 L 1.356 1.267 L 1.397 1.281 L 1.425 1.306 L 1.442 1.338 L 1.446 1.370 L 1.440 1.399 L 1.416 1.438 L 1.383 1.459 L 1.347 1.467 L 1.312 1.461 L 1.284 1.445 L 1.265 1.425 L 1.250 1.397 L 1.246 1.371
        M 0.996 1.121 L 0.996 1.111 L 0.999 1.092 L 1.009 1.067 L 1.034 1.038 L 1.067 1.021 L 1.106 1.017 L 1.147 1.031 L 1.175 1.056 L 1.192 1.088 L 1.196 1.120 L 1.190 1.149 L 1.166 1.188 L 1.133 1.209 L 1.097 1.217 L 1.062 1.211 L 1.034 1.195 L 1.015 1.175 L 1.000 1.147 L 0.996 1.121
        M 0.996 0.871 L 0.996 0.861 L 0.999 0.842 L 1.009 0.817 L 1.034 0.788 L 1.067 0.771 L 1.106 0.767 L 1.147 0.781 L 1.175 0.806 L 1.192 0.838 L 1.196 0.870 L 1.190 0.899 L 1.166 0.938 L 1.133 0.959 L 1.097 0.967 L 1.062 0.961 L 1.034 0.945 L 1.015 0.925 L 1.000 0.897 L 0.996 0.871"
	/>
</svg>
