<?xml version="1.0" encoding="utf-8"?>
<svg viewBox="0 0 2.499 2.499" xmlns="http://www.w3.org/2000/svg">
	<path
		fill="param(fill)" stroke="param(outline)" stroke-width="param(outline-width)" stroke-linecap="round" stroke-linejoin="butt" stroke-miterlimit="10"
		 d="M 1.108 0.683 L 0.684 1.108 L 0.660 1.135 L 0.641 1.170 L 0.632 1.197 L 0.626 1.227 L 0.626 1.264 L 0.635 1.310 L 0.653 1.350 L 0.669 1.375 L 0.684 1.390 L 1.108 1.815 L 1.118 1.824 L 1.143 1.843 L 1.169 1.857 L 1.199 1.867 L 1.232 1.873 L 1.271 1.872 L 1.298 1.867 L 1.327 1.857 L 1.356 1.842 L 1.376 1.828 L 1.391 1.815 L 1.815 1.390 L 1.830 1.374 L 1.845 1.352 L 1.856 1.330 L 1.867 1.298 L 1.873 1.256 L 1.873 1.231 L 1.869 1.207 L 1.861 1.180 L 1.852 1.159 L 1.841 1.139 L 1.828 1.122 L 1.815 1.108 L 1.391 0.683 L 1.364 0.661 L 1.335 0.644 L 1.307 0.633 L 1.270 0.626 L 1.236 0.625 L 1.198 0.632 L 1.167 0.642 L 1.138 0.659 L 1.122 0.671 L 1.108 0.683
		 		M 1.205 0.785 L 1.211 0.779 L 1.214 0.777 L 1.225 0.770 L 1.233 0.768 L 1.246 0.765 L 1.255 0.766 L 1.268 0.768 L 1.274 0.771 L 1.283 0.776 L 1.296 0.787 L 1.714 1.204 L 1.719 1.210 L 1.723 1.216 L 1.727 1.222 L 1.729 1.228 L 1.732 1.237 L 1.733 1.243 L 1.733 1.248 L 1.731 1.265 L 1.727 1.275 L 1.725 1.279 L 1.720 1.287 L 1.713 1.294 L 1.294 1.713 L 1.288 1.719 L 1.282 1.723 L 1.272 1.728 L 1.263 1.731 L 1.258 1.732 L 1.243 1.732 L 1.234 1.731 L 1.225 1.728 L 1.218 1.724 L 1.207 1.716 L 1.205 1.714 L 0.785 1.294 L 0.779 1.288 L 0.775 1.281 L 0.769 1.268 L 0.766 1.252 L 0.766 1.241 L 0.768 1.233 L 0.770 1.227 L 0.777 1.215 L 0.787 1.202 L 1.205 0.785
		 		M 1.249 0.938 L 0.938 1.249 L 1.249 1.560 L 1.560 1.249 L 1.249 0.938"
	/>
</svg>
